<svg width="55" height="47" viewBox="0 0 55 47" fill="none" xmlns="http://www.w3.org/2000/svg">
<path d="M27.4008 45.417L33.6841 40.8337M27.4008 45.417V24.792V45.417ZM27.4008 45.417L21.1176 40.8337L27.4008 45.417Z" stroke="#F8F8F8" stroke-width="3" stroke-linecap="round" stroke-linejoin="round"/>
<path d="M9.89315 15.8936C7.5161 16.439 5.43928 17.757 4.05288 19.6002C2.66648 21.4433 2.06593 23.6847 2.36407 25.9031C2.66221 28.1215 3.83851 30.1643 5.67198 31.6476C7.50544 33.131 9.86986 33.9528 12.321 33.9588H14.8343" stroke="#F8F8F8" stroke-width="3" stroke-linecap="round" stroke-linejoin="round"/>
<path d="M37.0268 11.3579C36.1678 8.25632 34.0475 5.56858 31.0957 3.83955C28.1439 2.11053 24.5816 1.46959 21.1308 2.04666C17.68 2.62373 14.5989 4.37564 12.5122 6.94724C10.4254 9.51884 9.48918 12.7177 9.89317 15.8954C9.89317 15.8954 10.2777 17.9167 11.0644 19.0625" stroke="#F8F8F8" stroke-width="3" stroke-linecap="round" stroke-linejoin="round"/>
<path d="M39.9673 33.9587C41.7418 33.9575 43.4959 33.6138 45.1142 32.95C46.7325 32.2862 48.1783 31.3174 49.3563 30.1074C50.5344 28.8975 51.4181 27.4737 51.9492 25.9299C52.4803 24.386 52.6468 22.7571 52.4378 21.1504C52.2287 19.5437 51.6488 17.9955 50.7363 16.6079C49.8238 15.2202 48.5993 14.0245 47.1434 13.0994C45.6875 12.1744 44.0333 11.5409 42.2896 11.2408C40.5459 10.9407 38.7523 10.9807 37.0268 11.3582L33.6841 12.1878" stroke="#F8F8F8" stroke-width="3" stroke-linecap="round" stroke-linejoin="round"/>
</svg>
